<?xml version="1.0" encoding="iso-8859-1"?>
<!-- Generator: Adobe Illustrator 19.0.0, SVG Export Plug-In . SVG Version: 6.00 Build 0)  -->
<svg version="1.1" id="Capa_1" xmlns="http://www.w3.org/2000/svg" xmlns:xlink="http://www.w3.org/1999/xlink" x="0px" y="0px"
	 viewBox="0 0 512 512" style="enable-background:new 0 0 512 512;" xml:space="preserve">
<linearGradient id="SVGID_1_" gradientUnits="userSpaceOnUse" x1="259.328" y1="492.9378" x2="259.848" y2="229.3228" gradientTransform="matrix(1.0039 0 0 -1.0039 0.1922 516.5605)">
	<stop  offset="0" style="stop-color:#9EB644"/>
	<stop  offset="1" style="stop-color:#738611"/>
</linearGradient>
<path style="fill:url(#SVGID_1_);" d="M396,34.979L396,34.979c-46.947-46.767-122.916-46.62-169.683,0.326L179.881,81.92
	l-0.064-33.417c-0.036-18.853-15.349-34.106-34.202-34.07l0,0c-18.853,0.036-34.106,15.349-34.07,34.202l0.154,79.869
	c0.027,13.971-5.497,27.38-15.357,37.278l0,0c-8.111,8.142-8.085,21.316,0.056,29.427l140.527,139.986
	c8.142,8.111,21.316,8.085,29.427-0.056l129.974-130.475C443.093,157.715,442.946,81.746,396,34.979z"/>
<linearGradient id="SVGID_2_" gradientUnits="userSpaceOnUse" x1="160.4982" y1="282.1528" x2="160.7282" y2="166.2028" gradientTransform="matrix(1.0039 0 0 -1.0039 0.1922 516.5605)">
	<stop  offset="0" style="stop-color:#FF5964"/>
	<stop  offset="0.242" style="stop-color:#FF505B"/>
	<stop  offset="0.643" style="stop-color:#FF3841"/>
	<stop  offset="1" style="stop-color:#FF1D25"/>
</linearGradient>
<path style="fill:url(#SVGID_2_);" d="M228.288,373.428L57.022,202.819c-3.103-3.091-3.113-8.113-0.021-11.216l26.277-26.378
	c3.091-3.103,8.113-3.113,11.216-0.021L265.76,335.813c3.103,3.091,3.113,8.113,0.022,11.216l-26.277,26.378
	C236.413,376.51,231.392,376.519,228.288,373.428z"/>
<linearGradient id="SVGID_3_" gradientUnits="userSpaceOnUse" x1="159.0581" y1="244.7431" x2="140.4581" y2="226.1431" gradientTransform="matrix(1.0039 0 0 -1.0039 0.1922 516.5605)">
	<stop  offset="0" style="stop-color:#FF1D25;stop-opacity:0"/>
	<stop  offset="1" style="stop-color:#FF1D25"/>
</linearGradient>
<path style="fill:url(#SVGID_3_);" d="M57.001,191.602c-3.091,3.103-3.082,8.125,0.021,11.216l171.266,170.608
	c3.103,3.091,8.125,3.082,11.216-0.021l12.771-12.82L70.122,178.432L57.001,191.602z"/>
<linearGradient id="SVGID_4_" gradientUnits="userSpaceOnUse" x1="226.7813" y1="456.2582" x2="189.7213" y2="476.4383" gradientTransform="matrix(1.0039 0 0 -1.0039 0.1922 516.5605)">
	<stop  offset="0" style="stop-color:#738611;stop-opacity:0"/>
	<stop  offset="1" style="stop-color:#738611"/>
</linearGradient>
<path style="fill:url(#SVGID_4_);" d="M320.52,0.357c-33.773-2.581-68.424,9.07-94.203,34.949L179.881,81.92v59.076L320.52,0.357z"
	/>
<g>
	<path style="fill:#FFE7A5;" d="M115.909,166.598c-0.459,0-0.922-0.134-1.329-0.413c-1.073-0.735-1.347-2.202-0.611-3.275
		c2.029-2.963,3.732-6.156,5.059-9.495c0.481-1.208,1.849-1.797,3.059-1.318c1.209,0.481,1.799,1.85,1.318,3.059
		c-1.457,3.662-3.324,7.167-5.55,10.418C117.399,166.239,116.661,166.598,115.909,166.598z M124.203,145.761
		c-0.121,0-0.246-0.01-0.369-0.029c-1.285-0.203-2.162-1.408-1.96-2.694c0.395-2.498,0.594-5.047,0.594-7.577l-0.006-3.325
		c-0.002-1.3,1.05-2.357,2.351-2.359c0.001,0,0.003,0,0.004,0c1.299,0,2.353,1.052,2.355,2.351l0.006,3.333
		c0,2.775-0.22,5.572-0.652,8.31C126.343,144.933,125.341,145.761,124.203,145.761z M124.795,123.183
		c-1.299,0-2.353-1.052-2.355-2.351l-0.022-11.305c-0.002-1.301,1.05-2.357,2.351-2.36c0.002,0,0.003,0,0.005,0
		c1.299,0,2.353,1.052,2.355,2.351l0.022,11.305c0.002,1.301-1.05,2.357-2.351,2.36
		C124.798,123.183,124.796,123.183,124.795,123.183z M124.751,100.572c-1.299,0-2.353-1.052-2.355-2.351l-0.022-11.305
		c-0.002-1.301,1.05-2.357,2.351-2.36c0.001,0,0.003,0,0.005,0c1.299,0,2.353,1.052,2.355,2.351l0.022,11.305
		c0.002,1.301-1.05,2.357-2.351,2.36C124.754,100.572,124.753,100.572,124.751,100.572z M124.708,77.96
		c-1.299,0-2.353-1.052-2.355-2.351l-0.022-11.305c-0.002-1.301,1.05-2.357,2.351-2.36c0.001,0,0.003,0,0.005,0
		c1.299,0,2.353,1.052,2.355,2.351l0.022,11.305c0.002,1.301-1.05,2.357-2.351,2.36C124.712,77.96,124.71,77.96,124.708,77.96z
		 M125.061,55.371c-0.119,0-0.239-0.009-0.36-0.027c-1.286-0.198-2.167-1.4-1.971-2.686c0.616-4.013,1.91-7.857,3.846-11.425
		c0.619-1.144,2.05-1.569,3.193-0.948c1.143,0.62,1.568,2.049,0.948,3.193c-1.676,3.091-2.797,6.42-3.331,9.896
		C127.207,54.537,126.204,55.371,125.061,55.371z M135.613,35.877c-0.645,0-1.287-0.263-1.752-0.78
		c-0.87-0.967-0.792-2.456,0.176-3.326c3.023-2.72,6.454-4.88,10.199-6.421c1.203-0.494,2.579,0.078,3.074,1.282
		c0.495,1.203-0.079,2.579-1.282,3.074c-3.245,1.335-6.219,3.208-8.84,5.567C136.738,35.677,136.175,35.877,135.613,35.877z"/>
	<path style="fill:#FFE7A5;" d="M192.129,96.523c-0.601,0-1.203-0.229-1.663-0.687c-0.922-0.918-0.925-2.409-0.006-3.331
		l7.916-7.946c0.918-0.923,2.408-0.926,3.331-0.006c0.922,0.918,0.925,2.409,0.006,3.331l-7.916,7.946
		C193.338,96.292,192.734,96.523,192.129,96.523z M208.024,80.567c-0.601,0-1.203-0.229-1.663-0.687
		c-0.922-0.918-0.925-2.409-0.006-3.331l7.979-8.009c0.918-0.923,2.408-0.925,3.331-0.006c0.922,0.918,0.925,2.409,0.006,3.331
		l-7.979,8.009C209.233,80.336,208.629,80.567,208.024,80.567z M223.982,64.548c-0.601,0-1.203-0.229-1.663-0.687
		c-0.922-0.918-0.925-2.409-0.006-3.331l7.978-8.01c0.918-0.923,2.408-0.926,3.331-0.006c0.922,0.918,0.925,2.409,0.006,3.331
		l-7.978,8.01C225.19,64.317,224.586,64.548,223.982,64.548z M239.95,48.539c-0.613,0-1.227-0.238-1.689-0.714
		c-0.907-0.933-0.886-2.423,0.047-3.331c2.75-2.673,5.651-5.243,8.624-7.638c1.013-0.816,2.496-0.657,3.312,0.356
		c0.816,1.013,0.657,2.496-0.356,3.312c-2.859,2.303-5.65,4.775-8.295,7.347C241.135,48.318,240.542,48.539,239.95,48.539z
		 M257.534,34.383c-0.765,0-1.515-0.372-1.968-1.058c-0.717-1.085-0.418-2.547,0.668-3.264c3.196-2.11,6.53-4.091,9.905-5.886
		c1.147-0.61,2.574-0.176,3.185,0.974c0.61,1.148,0.175,2.575-0.974,3.185c-3.245,1.725-6.448,3.628-9.521,5.658
		C258.429,34.257,257.979,34.383,257.534,34.383z M277.463,23.786c-0.924,0-1.799-0.546-2.175-1.452
		c-0.499-1.201,0.069-2.58,1.271-3.079c3.529-1.467,7.175-2.784,10.838-3.913c1.244-0.382,2.561,0.314,2.945,1.557
		c0.383,1.243-0.314,2.561-1.557,2.946c-3.522,1.085-7.026,2.351-10.418,3.762C278.07,23.729,277.764,23.786,277.463,23.786z
		 M299.031,17.131c-1.093,0-2.073-0.765-2.304-1.876c-0.264-1.274,0.553-2.521,1.827-2.786c3.745-0.778,7.574-1.387,11.378-1.812
		c1.298-0.149,2.458,0.787,2.602,2.079c0.145,1.293-0.787,2.458-2.079,2.602c-3.659,0.409-7.341,0.995-10.942,1.743
		C299.351,17.115,299.19,17.131,299.031,17.131z M332.77,14.96c-0.06,0-0.12-0.002-0.182-0.007
		c-3.677-0.281-7.398-0.392-11.075-0.326c-1.285,0.06-2.373-1.012-2.396-2.313s1.013-2.373,2.313-2.396
		c3.828-0.07,7.694,0.047,11.518,0.339c1.297,0.099,2.268,1.231,2.169,2.528C335.021,14.021,333.989,14.96,332.77,14.96z"/>
</g>
<linearGradient id="SVGID_5_" gradientUnits="userSpaceOnUse" x1="237.3173" y1="263.5918" x2="188.7473" y2="312.1618" gradientTransform="matrix(1.0039 0 0 -1.0039 0.1922 516.5605)">
	<stop  offset="0" style="stop-color:#738611;stop-opacity:0"/>
	<stop  offset="1" style="stop-color:#738611"/>
</linearGradient>
<polygon style="fill:url(#SVGID_5_);" points="192.159,157.606 239.619,205.066 191.57,253.114 "/>
<linearGradient id="SVGID_6_" gradientUnits="userSpaceOnUse" x1="285.2271" y1="357.2128" x2="285.7571" y2="93.6028" gradientTransform="matrix(1.0039 0 0 -1.0039 0.1922 516.5605)">
	<stop  offset="0" style="stop-color:#9EB644"/>
	<stop  offset="1" style="stop-color:#738611"/>
</linearGradient>
<path style="fill:url(#SVGID_6_);" d="M422.005,171.24L422.005,171.24c-46.947-46.767-122.916-46.62-169.683,0.326l-46.435,46.614
	l-0.064-33.417c-0.036-18.853-15.349-34.106-34.202-34.07l0,0c-18.853,0.036-34.106,15.349-34.07,34.202l0.154,79.869
	c0.027,13.971-5.497,27.38-15.357,37.278l0,0c-8.111,8.142-8.085,21.316,0.056,29.427L262.93,471.454
	c8.142,8.111,21.316,8.085,29.427-0.056l129.975-130.477C469.098,293.975,468.952,218.005,422.005,171.24z"/>
<linearGradient id="SVGID_7_" gradientUnits="userSpaceOnUse" x1="186.4021" y1="146.4328" x2="186.6321" y2="30.4828" gradientTransform="matrix(1.0039 0 0 -1.0039 0.1922 516.5605)">
	<stop  offset="0" style="stop-color:#FF5964"/>
	<stop  offset="0.242" style="stop-color:#FF505B"/>
	<stop  offset="0.643" style="stop-color:#FF3841"/>
	<stop  offset="1" style="stop-color:#FF1D25"/>
</linearGradient>
<path style="fill:url(#SVGID_7_);" d="M254.294,509.688L83.028,339.078c-3.103-3.091-3.113-8.113-0.021-11.216l26.277-26.378
	c3.091-3.103,8.113-3.113,11.216-0.021l171.266,170.608c3.103,3.091,3.113,8.113,0.021,11.216l-26.277,26.378
	C262.419,512.769,257.397,512.779,254.294,509.688z"/>
<linearGradient id="SVGID_8_" gradientUnits="userSpaceOnUse" x1="184.9586" y1="109.0126" x2="166.3586" y2="90.4126" gradientTransform="matrix(1.0039 0 0 -1.0039 0.1922 516.5605)">
	<stop  offset="0" style="stop-color:#FF1D25;stop-opacity:0"/>
	<stop  offset="1" style="stop-color:#FF1D25"/>
</linearGradient>
<path style="fill:url(#SVGID_8_);" d="M83.006,327.863c-3.091,3.103-3.082,8.125,0.021,11.216l171.266,170.608
	c3.103,3.091,8.125,3.082,11.216-0.021l12.771-12.82L96.127,314.691L83.006,327.863z"/>
<linearGradient id="SVGID_9_" gradientUnits="userSpaceOnUse" x1="252.6893" y1="320.5247" x2="215.6193" y2="340.7047" gradientTransform="matrix(1.0039 0 0 -1.0039 0.1922 516.5605)">
	<stop  offset="0" style="stop-color:#738611;stop-opacity:0"/>
	<stop  offset="1" style="stop-color:#738611"/>
</linearGradient>
<path style="fill:url(#SVGID_9_);" d="M346.525,136.618c-33.773-2.581-68.424,9.07-94.203,34.949l-46.435,46.614v59.076
	L346.525,136.618z"/>
<g>
	<path style="fill:#FFE7A5;" d="M141.915,302.858c-0.459,0-0.922-0.134-1.329-0.413c-1.073-0.735-1.347-2.202-0.611-3.275
		c2.029-2.963,3.732-6.156,5.059-9.495c0.481-1.208,1.849-1.797,3.059-1.318c1.209,0.481,1.799,1.85,1.318,3.059
		c-1.457,3.662-3.324,7.167-5.55,10.417C143.404,302.5,142.666,302.858,141.915,302.858z M150.207,282.022
		c-0.121,0-0.246-0.01-0.369-0.029c-1.285-0.203-2.162-1.409-1.96-2.694c0.395-2.498,0.594-5.047,0.594-7.577l-0.006-3.325
		c-0.002-1.3,1.05-2.357,2.351-2.359c0.001,0,0.003,0,0.004,0c1.299,0,2.353,1.052,2.355,2.351l0.006,3.333
		c0,2.775-0.22,5.572-0.652,8.31C152.349,281.193,151.347,282.022,150.207,282.022z M150.8,259.442
		c-1.299,0-2.353-1.051-2.355-2.351l-0.022-11.305c-0.002-1.301,1.05-2.357,2.351-2.36c0.002,0,0.003,0,0.005,0
		c1.299,0,2.353,1.052,2.355,2.351l0.022,11.305c0.002,1.301-1.05,2.357-2.351,2.36C150.803,259.442,150.801,259.442,150.8,259.442z
		 M150.757,236.831c-1.299,0-2.353-1.052-2.355-2.351l-0.022-11.305c-0.002-1.301,1.05-2.357,2.351-2.36c0.001,0,0.003,0,0.005,0
		c1.299,0,2.353,1.052,2.355,2.351l0.022,11.305c0.002,1.301-1.05,2.357-2.351,2.36C150.76,236.831,150.758,236.831,150.757,236.831
		z M150.713,214.221c-1.299,0-2.353-1.052-2.355-2.351l-0.022-11.305c-0.002-1.301,1.05-2.357,2.351-2.36c0.001,0,0.003,0,0.005,0
		c1.299,0,2.353,1.052,2.355,2.351l0.022,11.305c0.002,1.301-1.05,2.357-2.351,2.36
		C150.716,214.221,150.714,214.221,150.713,214.221z M151.066,191.63c-0.119,0-0.239-0.009-0.36-0.027
		c-1.286-0.198-2.167-1.4-1.971-2.686c0.616-4.013,1.91-7.857,3.846-11.425c0.619-1.144,2.05-1.569,3.193-0.948
		c1.143,0.62,1.568,2.049,0.948,3.193c-1.676,3.091-2.797,6.42-3.331,9.896C153.212,190.797,152.209,191.63,151.066,191.63z
		 M161.618,172.136c-0.645,0-1.287-0.263-1.752-0.78c-0.87-0.967-0.792-2.456,0.176-3.326c3.023-2.72,6.454-4.88,10.199-6.421
		c1.203-0.494,2.579,0.078,3.074,1.282c0.495,1.203-0.079,2.579-1.282,3.074c-3.245,1.335-6.219,3.208-8.84,5.567
		C162.743,171.938,162.179,172.136,161.618,172.136z"/>
	<path style="fill:#FFE7A5;" d="M218.135,232.783c-0.601,0-1.203-0.229-1.663-0.687c-0.922-0.918-0.925-2.409-0.006-3.331
		l7.916-7.946c0.918-0.923,2.408-0.926,3.331-0.006c0.922,0.918,0.925,2.409,0.006,3.331l-7.916,7.946
		C219.344,232.552,218.739,232.783,218.135,232.783z M234.029,216.827c-0.601,0-1.203-0.229-1.663-0.687
		c-0.922-0.918-0.925-2.409-0.006-3.331l7.979-8.009c0.918-0.923,2.408-0.925,3.331-0.006c0.922,0.918,0.925,2.409,0.006,3.331
		l-7.979,8.009C235.238,216.596,234.633,216.827,234.029,216.827z M249.987,200.807c-0.601,0-1.203-0.229-1.662-0.687
		c-0.922-0.918-0.925-2.409-0.006-3.331l7.978-8.01c0.918-0.923,2.408-0.926,3.331-0.006c0.922,0.918,0.925,2.409,0.006,3.331
		l-7.978,8.01C251.196,200.576,250.592,200.807,249.987,200.807z M265.956,184.8c-0.613,0-1.227-0.238-1.689-0.714
		c-0.907-0.933-0.886-2.423,0.047-3.331c2.75-2.673,5.651-5.243,8.624-7.638c1.013-0.816,2.496-0.657,3.312,0.356
		c0.816,1.013,0.657,2.496-0.356,3.312c-2.859,2.303-5.65,4.775-8.295,7.347C267.139,184.578,266.547,184.8,265.956,184.8z
		 M283.539,170.643c-0.765,0-1.515-0.372-1.968-1.058c-0.717-1.085-0.418-2.547,0.668-3.264c3.196-2.11,6.529-4.091,9.905-5.886
		c1.147-0.61,2.574-0.176,3.185,0.974c0.61,1.148,0.175,2.575-0.974,3.185c-3.245,1.725-6.448,3.628-9.521,5.658
		C284.435,170.517,283.984,170.643,283.539,170.643z M303.468,160.046c-0.924,0-1.799-0.546-2.176-1.452
		c-0.499-1.201,0.069-2.58,1.271-3.079c3.529-1.467,7.175-2.784,10.838-3.913c1.244-0.382,2.561,0.314,2.945,1.557
		c0.384,1.243-0.314,2.561-1.557,2.946c-3.522,1.085-7.026,2.351-10.418,3.762C304.076,159.988,303.769,160.046,303.468,160.046z
		 M325.036,153.391c-1.093,0-2.073-0.765-2.304-1.876c-0.264-1.274,0.553-2.521,1.827-2.786c3.745-0.778,7.574-1.387,11.378-1.812
		c1.298-0.149,2.458,0.787,2.602,2.079c0.145,1.293-0.787,2.458-2.079,2.602c-3.659,0.409-7.341,0.995-10.942,1.743
		C325.356,153.375,325.195,153.391,325.036,153.391z M358.775,151.221c-0.06,0-0.12-0.002-0.182-0.007
		c-3.677-0.281-7.398-0.392-11.075-0.326c-1.285,0.06-2.373-1.012-2.396-2.313c-0.023-1.301,1.013-2.373,2.313-2.396
		c3.828-0.07,7.694,0.047,11.518,0.339c1.297,0.099,2.269,1.231,2.169,2.528C361.027,150.281,359.994,151.221,358.775,151.221z"/>
</g>
<g>
</g>
<g>
</g>
<g>
</g>
<g>
</g>
<g>
</g>
<g>
</g>
<g>
</g>
<g>
</g>
<g>
</g>
<g>
</g>
<g>
</g>
<g>
</g>
<g>
</g>
<g>
</g>
<g>
</g>
</svg>
