<svg id="outline" height="512" viewBox="0 0 512 512" width="512" xmlns="http://www.w3.org/2000/svg"><path d="m368 240 126.926-61.829a16 16 0 0 0 7.381-21.577l-1.873-3.746a16 16 0 0 0 -20.853-7.446l-124.581 56.598z" fill="#d38f29"/><circle cx="364" cy="220" fill="#aa6b17" r="20"/><path d="m341.221 247.658c26.127 75.115-27.121 161.894-118.921 193.827s-187.415-3.073-213.542-78.185z" fill="#ccc"/><path d="m88 290.035c14.6-7.362 30.733-14.56 48-21.319q11.3-4.424 23.22-8.575c91.807-31.933 173.291-37.522 182-12.484s-58.655 71.223-150.462 103.156-173.291 37.522-182 12.487c-2.943-8.462 2.8-19.338 15.242-31.263" fill="#a0a09d"/><path d="m164.18 359.42c-32.9 9.87-63.56 16.09-88.85 18.46-47.45-8.44-59.87-67.67-59.98-85.49a12.317 12.317 0 0 1 12.33-12.39 12.325 12.325 0 0 0 12.32-12.32v-56.58a19.09 19.09 0 1 1 38.18 0c0 .32 0 .64-.02.96-2.05 41.84-.78 134.57 85.84 146.94z" fill="#f9ee64"/><circle cx="72" cy="128" fill="#aa6f21" r="16"/><circle cx="128" cy="72" fill="#79c143" r="16"/><path d="m310.9 273.86c-1.03 8.77-3.03 18.27-6.9 22.14l.08.38c-14.92 10.27-33.66 20.81-55.15 30.88 4.67-3.91 25.48-23.02 30.14-57.33a16.037 16.037 0 0 1 15.86-13.93h.08a16 16 0 0 1 15.89 17.86z" fill="#f9ee64"/><g fill="#fff"><path d="m40 304c27.635-19.507 20.917-87.239 17.433-111.916a19.091 19.091 0 0 0 -17.433 19.016v56.58a12.325 12.325 0 0 1 -12.32 12.32 12.317 12.317 0 0 0 -12.33 12.39c.052 8.439 2.868 26.163 10.854 43.382-1.428-11.317 1.384-23.01 13.796-31.772z" opacity=".3"/><path d="m81.534 115.173a15.985 15.985 0 1 0 -18.034 26.363c-1.867-14.9 9.156-22.614 18.034-26.363z" opacity=".3"/><path d="m137.534 59.173a15.985 15.985 0 1 0 -18.034 26.363c-1.867-14.9 9.156-22.614 18.034-26.363z" opacity=".3"/><path d="m265.021 308.429c26.82-10.549 36.409-36.565 39.564-49.248a15.9 15.9 0 0 0 -9.575-3.181h-.08a16.037 16.037 0 0 0 -15.86 13.93 94.933 94.933 0 0 1 -14.049 38.499z" opacity=".3"/></g><path d="m501.224 154.428-.79-1.581a16 16 0 0 0 -20.853-7.446l-117.339 53.309c71.119-6.468 118.875-31.59 138.982-44.282z" fill="#efb66a"/><path d="m118.034 371.22c-58.706 12.265-102.981 10.165-109.275-7.92 26.128 75.113 121.731 110.117 213.541 78.185a210.548 210.548 0 0 0 56.023-29.417c-106.023 17.716-146.671-20.75-160.289-40.848z" fill="#fff" opacity=".3"/><path d="m88.146 450.046a189.98 189.98 0 0 0 65.354 11.3 217.867 217.867 0 0 0 71.424-12.3c46.141-16.049 84.453-45.914 107.877-84.093 23.741-38.693 29.414-81.281 15.975-119.919a21.522 21.522 0 0 0 -.9-2.16 27.9 27.9 0 0 0 23.533 4.126l126.982-61.616a24 24 0 0 0 11.072-32.365l-1.874-3.747a23.959 23.959 0 0 0 -31.331-11.146l-119.581 54.6a28.223 28.223 0 0 0 -20.677 27.274 27.866 27.866 0 0 0 1.6 9.318l-2.353 1.569c-31.391-15.7-107.523-3.043-178.655 21.7q-6.269 2.18-12.5 4.494c-7.861-29.123 12.482-50.32 13.589-51.443l-11.334-11.292a77.3 77.3 0 0 0 -16.979 29.271 66.627 66.627 0 0 0 -.321 39.26c-12.8 5.111-25.1 10.514-36.739 16.129-6.455-23.962-7.028-48.686-6.149-66.552a27.095 27.095 0 1 0 -54.159-1.354v56.58a4.329 4.329 0 0 1 -4.325 4.32 20.319 20.319 0 0 0 -20.326 20.44 128.959 128.959 0 0 0 6.861 38.122c-12.241 13.105-16.619 24.984-13.01 35.363 13.441 38.638 44.319 68.513 86.946 84.121zm131.522-16.117c-42.662 14.839-87.416 15.228-126.021 1.093-28.524-10.444-51.1-27.906-65.6-50.335a123.421 123.421 0 0 0 25.4 2.286q7.351 0 15.7-.572c27.583-1.892 60.779-8.473 95.617-18.816.7.112 19.776-6.137 28.626-9.215a618.71 618.71 0 0 0 59.354-24.049l.408-.19c20.929-9.849 39.658-20.324 55.058-30.883q20.668-14.17 31.136-26.819c6.019 63.887-42.785 130.755-119.678 157.5zm83.287-161c-1.686 14.34-4.494 17.294-4.612 17.413l.155.155c-6.623 4.51-13.887 9.008-21.7 13.447a103.433 103.433 0 0 0 10.202-32.944 8.092 8.092 0 0 1 8.009-7 8 8 0 0 1 7.948 8.931zm179.897-120.229a7.981 7.981 0 0 1 10.426 3.722l1.874 3.747a8 8 0 0 1 -3.729 10.807l-99.437 48.439a27.94 27.94 0 0 0 -9.853-20.728zm-118.852 55.3a11.986 11.986 0 0 1 7.332 21.479l-4.4 2.145a11.374 11.374 0 0 1 -4.365.282l1.874-1.249a8 8 0 1 0 -8.875-13.312l-3.548 2.365a12.007 12.007 0 0 1 11.982-11.71zm-218.146 85.122 12.292-10.243a80.666 80.666 0 0 1 -7.8-11.057c3.817-1.409 7.66-2.787 11.5-4.124 43.75-15.217 86.4-24.871 120.082-27.181 15.673-1.074 28.884-.448 38.2 1.813 7.581 1.838 12.386 4.664 13.531 7.957s-.87 8.49-5.672 14.636a83.255 83.255 0 0 1 -9.129 9.693 24.035 24.035 0 0 0 -47.719-5.764c-4.064 29.911-21.746 47.342-26.678 51.682a605.259 605.259 0 0 1 -56.335 22.724q-12.242 4.258-24.316 7.922c-31.607-6.1-53.955-25.2-66.469-56.848 11.932-5.82 24.64-11.416 37.883-16.7a95.974 95.974 0 0 0 10.63 15.49zm-121.254-3.844a4.3 4.3 0 0 1 3.075-1.278 20.348 20.348 0 0 0 20.325-20.325v-56.575a11.107 11.107 0 0 1 11.1-11.1 11.1 11.1 0 0 1 11.08 11.665c-1.144 23.243.045 57.437 12.207 88.342 7.005 17.8 16.913 32.448 29.447 43.533a96.061 96.061 0 0 0 23.838 15.428 410.749 410.749 0 0 1 -55.672 10.373l-6.683-1.232c-17.868-2.978-31.438-14.267-40.334-33.552a111.486 111.486 0 0 1 -9.632-42.217 4.275 4.275 0 0 1 1.249-3.062zm-8.287 71.391c-1.107-3.181.725-8.033 4.992-13.727a76.744 76.744 0 0 0 18.988 23.382 77.6 77.6 0 0 1 -10.448-1.7c-7.577-1.838-12.381-4.661-13.529-7.951v-.005z"/><path d="m72 104a24 24 0 1 0 24 24 24.027 24.027 0 0 0 -24-24zm0 32a8 8 0 1 1 8-8 8.009 8.009 0 0 1 -8 8z"/><path d="m152 72a24 24 0 1 0 -24 24 24.027 24.027 0 0 0 24-24zm-32 0a8 8 0 1 1 8 8 8.009 8.009 0 0 1 -8-8z"/><path d="m104 160h16v16h-16z"/><path d="m96 232h16v16h-16z"/><path d="m144 304h16v16h-16z"/><path d="m16 152h16v16h-16z"/><path d="m83.563 366.656 8.875-13.312c-19.552-13.035-20.415-25.044-20.438-25.549.007.135 0 .205 0 .205h-16c0 2.076.773 20.8 27.563 38.656z"/><path d="m162.489 123.689a101.832 101.832 0 0 1 11.175-14.039l-11.321-11.307c-1.075 1.076-26.343 26.657-26.343 53.657h16c0-8.158 3.627-17.948 10.489-28.311z"/></svg>