<?xml version="1.0" encoding="iso-8859-1"?>
<!-- Generator: Adobe Illustrator 19.0.0, SVG Export Plug-In . SVG Version: 6.00 Build 0)  -->
<svg version="1.1" id="Layer_1" xmlns="http://www.w3.org/2000/svg" xmlns:xlink="http://www.w3.org/1999/xlink" x="0px" y="0px"
	 viewBox="0 0 512 512" style="enable-background:new 0 0 512 512;" xml:space="preserve">
<g transform="translate(0 1)">
	<path style="fill:#FD9808;" d="M30.8,116.76L134.907,12.653c7.68-7.68,19.627-6.827,26.453,2.56l88.747,128
		c4.267,6.827,4.267,16.213-1.707,22.187l-64.853,64c-5.973,5.973-15.36,6.827-22.187,1.707l-128-88.747
		C23.973,136.387,23.12,123.587,30.8,116.76"/>
	<path style="fill:#FFDD09;" d="M29.093,117.613l93.867-93.867c6.827-6.827,17.92-5.973,23.893,2.56l80.213,116.053
		c4.267,5.973,3.413,14.507-1.707,19.627l-58.027,58.027c-5.12,5.12-13.653,5.973-19.627,1.707L31.653,141.507
		C23.973,135.533,23.12,124.44,29.093,117.613"/>
	<path style="fill:#FD9808;" d="M341.413,502.467H204.88c-56.32,0-102.4-46.08-102.4-102.4v-51.2h341.333v51.2
		C443.813,456.387,397.733,502.467,341.413,502.467"/>
	<path style="fill:#1CD759;" d="M142.587,161.133c10.24-10.24,10.24-26.453,0-35.84c10.24,10.24,26.453,10.24,35.84,0
		c10.24-10.24,10.24-26.453,0-35.84c-10.24-10.24-26.453-10.24-35.84,0c-10.24-10.24-26.453-10.24-35.84,0
		c-10.24,10.24-10.24,26.453,0,35.84c-10.24,10.24-10.24,26.453,0,35.84C116.987,171.373,133.2,171.373,142.587,161.133"/>
	<path style="fill:#FFDD09;" d="M315.813,502.467H204.88c-56.32,0-102.4-46.08-102.4-102.4v-51.2h315.733v51.2
		C418.213,456.387,372.133,502.467,315.813,502.467"/>
	<path style="fill:#FFFFFF;" d="M128.08,348.867v51.2c0,56.32,46.08,102.4,102.4,102.4h-25.6c-56.32,0-102.4-46.08-102.4-102.4
		v-51.2H128.08z"/>
	<path d="M239.013,272.067c0,5.12-3.413,8.533-8.533,8.533c-5.12,0-8.533-3.413-8.533-8.533s3.413-8.533,8.533-8.533
		C235.6,263.533,239.013,266.947,239.013,272.067"/>
	<path d="M264.613,237.933c0,5.12-3.413,8.533-8.533,8.533c-5.12,0-8.533-3.413-8.533-8.533c0-5.12,3.413-8.533,8.533-8.533
		C261.2,229.4,264.613,232.813,264.613,237.933"/>
	<path d="M239.013,220.867c0,5.12-3.413,8.533-8.533,8.533c-5.12,0-8.533-3.413-8.533-8.533c0-5.12,3.413-8.533,8.533-8.533
		C235.6,212.333,239.013,215.747,239.013,220.867"/>
	<path d="M264.613,297.667c0,5.12-3.413,8.533-8.533,8.533c-5.12,0-8.533-3.413-8.533-8.533s3.413-8.533,8.533-8.533
		C261.2,289.133,264.613,292.547,264.613,297.667"/>
	<path d="M247.547,340.333c0,5.12-3.413,8.533-8.533,8.533c-5.12,0-8.533-3.413-8.533-8.533c0-5.12,3.413-8.533,8.533-8.533
		C244.133,331.8,247.547,335.213,247.547,340.333"/>
	<path d="M341.413,511H204.88c-61.44,0-110.933-49.493-110.933-110.933v-51.2c0-5.12,3.413-8.533,8.533-8.533h341.333
		c5.12,0,8.533,3.413,8.533,8.533v51.2C452.347,461.507,402.853,511,341.413,511z M111.013,357.4v42.667
		c0,52.053,41.813,93.867,93.867,93.867h136.533c52.053,0,93.867-41.813,93.867-93.867V357.4H111.013z"/>
	<path d="M435.28,511H111.013c-0.853,0-0.853,0-1.707,0l-42.667-8.533c-4.267-0.853-7.68-5.12-6.827-10.24
		c0.853-4.267,5.12-7.68,10.24-6.827l41.813,8.533h322.56l41.813-8.533c4.267-0.853,9.387,1.707,10.24,6.827
		c0.853,4.267-1.707,9.387-6.827,10.24L436.987,511C436.133,511,436.133,511,435.28,511z"/>
	<path d="M367.013,357.4c-2.56,0-4.267-0.853-5.973-2.56c-3.413-3.413-3.413-8.533,0-11.947l119.467-119.467
		c3.413-3.413,8.533-3.413,11.947,0c3.413,3.413,3.413,8.533,0,11.947L372.987,354.84C371.28,356.547,369.573,357.4,367.013,357.4z"
		/>
	<path d="M170.747,243.053c-5.12,0-10.24-1.707-14.507-4.267l-128-88.747c-5.973-4.267-10.24-11.093-11.093-18.773
		c-0.853-7.68,1.707-15.36,7.68-20.48l0,0L128.08,6.68C133.2,1.56,140.88-1,148.56-1c7.68,0.853,14.507,4.267,18.773,11.093
		l88.747,128c6.827,10.24,5.973,23.893-2.56,32.427l-64,64C184.4,240.493,177.573,243.053,170.747,243.053z M36.773,122.733
		c-2.56,1.707-2.56,5.12-2.56,6.827c0,1.707,0.853,4.267,3.413,5.973l128,88.747c3.413,2.56,7.68,1.707,11.093-0.853l64-64
		c2.56-2.56,3.413-7.68,0.853-11.093L153.68,19.48c-1.707-2.56-5.12-3.413-5.973-3.413c-1.707,0-4.267,0-6.827,2.56L36.773,122.733
		L36.773,122.733z"/>
	<path d="M124.667,177.347c-8.533,0-17.067-3.413-23.893-10.24c-11.093-11.093-12.8-29.013-5.12-41.813
		c-8.533-12.8-6.827-30.72,5.12-41.813c11.093-11.093,29.013-12.8,42.667-5.12c12.8-8.533,30.72-6.827,41.813,5.12
		c6.827,6.827,10.24,15.36,10.24,23.893c0,9.387-3.413,17.92-10.24,23.893c-6.827,6.827-17.067,10.24-26.453,10.24
		c0.853,9.387-2.56,18.773-10.24,26.453l0,0C142.587,173.933,133.2,177.347,124.667,177.347z M142.587,161.133L142.587,161.133
		L142.587,161.133z M124.667,89.453c-4.267,0-8.533,1.707-11.947,5.12c-6.827,6.827-6.827,17.067,0,23.893
		c3.413,3.413,3.413,8.533,0,11.947c-6.827,6.827-6.827,17.067,0,23.893s17.067,6.827,23.893,0c6.827-6.827,6.827-17.067,0-23.893
		c-1.707-1.707-2.56-4.267-2.56-5.973s0.853-4.267,2.56-5.973c3.413-3.413,8.533-3.413,11.947,0c6.827,6.827,17.067,6.827,23.893,0
		c3.413-3.413,5.12-7.68,5.12-11.947c0-4.267-1.707-8.533-5.12-11.947c-6.827-6.827-17.067-6.827-23.893,0
		c-3.413,3.413-8.533,3.413-11.947,0C133.2,91.16,128.933,89.453,124.667,89.453z"/>
</g>
<g>
</g>
<g>
</g>
<g>
</g>
<g>
</g>
<g>
</g>
<g>
</g>
<g>
</g>
<g>
</g>
<g>
</g>
<g>
</g>
<g>
</g>
<g>
</g>
<g>
</g>
<g>
</g>
<g>
</g>
</svg>
